<svg version="1.1" xmlns="http://www.w3.org/2000/svg" style="display: block;" viewBox="333.333 176 1388 1689.333" width="1388" height="1689.333" preserveAspectRatio="none">
<path transform="translate(0,0)" fill="rgb(20,26,32)" d="M 886.615 212.107 L 894.395 207.92 L 894.447 397.601 C 853.438 436.764 812.283 479.397 772.263 519.78 L 572.851 722.728 C 572.075 786.175 571.446 858.118 572.608 921.426 C 609.33 885.794 648.272 843.639 684.897 806.715 C 756.14 735.192 827.978 664.264 900.405 593.94 C 926.746 568.293 953.238 542.802 979.881 517.47 C 995.697 502.434 1015.29 483.358 1031.93 469.385 L 1032.1 672.417 C 1045.56 675.193 1054.54 679.672 1063.36 690.517 C 1079.62 710.287 1078.39 742.225 1058.48 758.988 C 1057.58 759.741 1057 759.973 1056.03 760.442 C 1051.7 764.571 1050.16 765.305 1045.03 768.175 C 1044.6 789.403 1044.49 810.637 1044.7 831.869 C 1059.95 846.949 1075.34 861.889 1090.86 876.688 C 1096.47 882.115 1112.39 898.187 1117.76 902.134 C 1119.52 899.327 1119.05 898.645 1119.25 895.008 C 1138.84 914.443 1158.93 937.539 1177.9 957.833 C 1177.92 989.914 1176.56 1033.07 1178.15 1064.13 C 1178.09 1072.52 1177.83 1081.72 1178.11 1090.04 C 1165.08 1104.36 1151.98 1118.61 1138.79 1132.78 C 1135.06 1136.82 1121.49 1151.25 1118.91 1155.14 C 1114.4 1159.71 1109.62 1164.72 1104.93 1169.04 L 1104.79 1405.7 C 1104.77 1450.43 1105.39 1497.97 1104.27 1542.53 L 1035.52 1608.88 L 1014.47 1628.46 C 1011.36 1633.62 1012.8 1701.38 1012.86 1712.69 C 987.774 1735.64 962.516 1758.4 937.092 1780.98 C 930.296 1787.04 923.337 1793.42 916.447 1799.33 C 912.883 1804 884.702 1828.5 879.353 1832.83 C 862.993 1821.16 823.432 1783.08 807.894 1768.7 L 680.869 1651.48 C 609.967 1586.37 539.399 1520.9 469.17 1455.07 C 436.842 1424.98 397.594 1390.37 366.847 1359.41 C 365.154 1224.3 366.95 1085.7 366.917 950.299 L 366.808 752.447 C 366.76 715.86 365.996 676.908 366.885 640.607 C 373.507 633.657 387.733 621.947 395.449 615.281 L 448.798 569.595 C 501.412 524.67 554.299 480.064 607.454 435.78 C 615.164 429.488 622.84 423.156 630.483 416.784 C 684.17 371.911 738.401 327.692 793.163 284.137 C 820.675 262.208 858.237 230.926 886.615 212.107 z"/>
<path transform="translate(0,0)" fill="rgb(36,45,54)" d="M 630.483 416.784 C 684.17 371.911 738.401 327.692 793.163 284.137 C 820.675 262.208 858.237 230.926 886.615 212.107 C 884.778 222.85 873.24 239.663 868.666 251.318 C 866.731 268.635 867.189 290.527 867.187 308.239 C 867.185 329.017 866.639 352.825 868.092 373.426 C 788.025 448.746 711.291 529.659 633.711 607.573 C 602.357 639.064 566.246 679.022 534.272 708.599 L 534.281 854.792 C 534.29 863.572 535.047 910.163 533.954 916.421 C 535.026 1001.4 533.373 1086.98 534.135 1171.98 C 534.448 1206.87 532.881 1248.73 534.574 1282.84 C 546.306 1279.12 559.163 1274.8 570.933 1271.54 C 603.227 1306.71 637.914 1341.95 671.035 1376.56 L 789.592 1501.29 L 850.995 1565.62 C 861.275 1576.37 876.481 1591.39 885.854 1602.54 C 877.765 1606.4 857.349 1615.31 852.381 1621.03 C 854.256 1625.39 853.062 1770.35 853.048 1784.93 C 795.08 1730.67 731.034 1662.9 675.497 1605.56 C 613.056 1540.8 549.327 1477.29 484.348 1415.07 C 457.606 1389.51 427.771 1359.95 399.993 1336.01 L 397.879 1028.43 C 397.915 1012.3 397.837 996.161 397.646 980.025 C 397.59 973.846 396.89 949.451 398.708 945.208 C 405.284 929.855 423.469 906.613 433.297 892.056 C 422.257 877.178 408.641 863.059 398.026 848.434 C 396.148 838.298 396.641 820.16 396.651 809.237 L 396.723 751.532 L 396.747 694.855 C 396.755 686.475 396.339 671.718 397.231 663.771 C 393.028 659.54 372.352 643.442 366.885 640.607 C 373.507 633.657 387.733 621.947 395.449 615.281 L 448.798 569.595 C 501.412 524.67 554.299 480.064 607.454 435.78 C 615.164 429.488 622.84 423.156 630.483 416.784 z"/>
<path transform="translate(0,0)" fill="rgb(46,58,70)" d="M 533 1282.41 L 533.046 1020.89 L 532.887 954.516 C 532.868 946.095 532.314 923.791 533.954 916.421 C 535.026 1001.4 533.373 1086.98 534.135 1171.98 C 534.448 1206.87 532.881 1248.73 534.574 1282.84 C 546.306 1279.12 559.163 1274.8 570.933 1271.54 C 603.227 1306.71 637.914 1341.95 671.035 1376.56 L 789.592 1501.29 L 850.995 1565.62 C 861.275 1576.37 876.481 1591.39 885.854 1602.54 C 877.765 1606.4 857.349 1615.31 852.381 1621.03 C 850.421 1620.41 763.701 1530.81 760.783 1525.63 L 761.962 1525.58 C 791.972 1554.08 821.607 1589.52 851.273 1618.8 L 853.304 1616.68 C 853.35 1615.96 853.396 1615.25 853.442 1614.53 C 846.325 1607.82 836.939 1597.32 830.508 1590.43 C 770.329 1526.65 709.736 1463.26 648.733 1400.27 L 569.451 1320.09 C 558.603 1309.02 542.369 1293.83 533 1282.41 z"/>
<path transform="translate(0,0)" fill="rgb(60,71,86)" d="M 366.885 640.607 C 373.507 633.657 387.733 621.947 395.449 615.281 L 448.798 569.595 C 501.412 524.67 554.299 480.064 607.454 435.78 C 606.961 445.698 600.914 468.764 595.265 476.771 C 589.768 484.563 574.126 498.36 566.502 505.456 L 518.395 550.141 C 478.804 586.907 439.673 624.175 400.269 661.137 C 399.303 662.043 398.28 662.972 397.231 663.771 C 393.028 659.54 372.352 643.442 366.885 640.607 z"/>
<path transform="translate(0,0)" fill="rgb(60,71,86)" d="M 630.483 416.784 C 684.17 371.911 738.401 327.692 793.163 284.137 C 820.675 262.208 858.237 230.926 886.615 212.107 C 884.778 222.85 873.24 239.663 868.666 251.318 C 853.366 254.204 645.619 438.768 613.362 462.775 C 617.477 449.751 631.279 426.004 630.483 416.784 z"/>
<path transform="translate(0,0)" fill="rgb(20,26,32)" d="M 1035.29 764.898 C 1043.35 762 1046.32 760.171 1053.25 755.606 C 1054.64 756.105 1054.92 756.397 1056.41 756.243 L 1056.45 757.674 L 1054.29 759.758 L 1056.03 760.442 C 1051.7 764.571 1050.16 765.305 1045.03 768.175 C 1044.6 789.403 1044.49 810.637 1044.7 831.869 C 1059.95 846.949 1075.34 861.889 1090.86 876.688 C 1096.47 882.115 1112.39 898.187 1117.76 902.134 C 1119.52 899.327 1119.05 898.645 1119.25 895.008 C 1138.84 914.443 1158.93 937.539 1177.9 957.833 C 1177.92 989.914 1176.56 1033.07 1178.15 1064.13 C 1178.09 1072.52 1177.83 1081.72 1178.11 1090.04 C 1165.08 1104.36 1151.98 1118.61 1138.79 1132.78 C 1135.06 1136.82 1121.49 1151.25 1118.91 1155.14 C 1114.4 1159.71 1109.62 1164.72 1104.93 1169.04 L 1104.79 1405.7 C 1104.77 1450.43 1105.39 1497.97 1104.27 1542.53 L 1035.52 1608.88 C 1034.13 1588.17 1035.12 1554.46 1035.12 1533.02 L 1035.23 1388.04 C 1037.42 1387.31 1039.72 1386.54 1041.85 1385.66 C 1052.61 1381.11 1061.14 1372.5 1065.57 1361.69 C 1070.2 1350.41 1069.86 1337.7 1064.63 1326.68 C 1058.34 1313.09 1048.67 1307.24 1035.3 1302.62 L 1035.39 1171.47 C 1035.42 1145.89 1036.01 1117.17 1034.87 1091.96 C 1035.74 1081.63 1036.89 1070.73 1043 1062.03 C 1054.92 1045.04 1090.24 1041.35 1110.04 1037.94 L 1100.4 1035.91 C 1085.55 1033.91 1061.55 1030.49 1049.33 1021.52 C 1038.08 1013.27 1036.66 1000.61 1034.96 988.008 C 1036.67 965.855 1035.19 928.949 1035.37 905.256 L 1035.29 764.898 z"/>
<path transform="translate(0,0)" fill="rgb(36,45,54)" d="M 1035.37 905.256 C 1037.29 908.42 1036.38 962.886 1036.41 971.065 C 1042.94 976.652 1046.56 994.289 1058.39 1006.77 C 1069.76 1018.77 1096.36 1029.53 1100.4 1035.91 C 1085.55 1033.91 1061.55 1030.49 1049.33 1021.52 C 1038.08 1013.27 1036.66 1000.61 1034.96 988.008 C 1036.67 965.855 1035.19 928.949 1035.37 905.256 z"/>
<path transform="translate(0,0)" fill="rgb(116,182,219)" d="M 687.143 1234.14 C 680.667 1245.49 672.698 1253.95 659.75 1257.66 C 648.449 1260.88 636.322 1259.32 626.198 1253.36 C 615.903 1247.19 608.561 1237.09 605.859 1225.4 C 593.607 1171.72 677.995 1145.54 691.074 1212.93 L 778.134 1213.01 C 806.009 1242.63 835.486 1272.33 863.827 1301.65 C 887.944 1327.08 912.24 1352.34 936.713 1377.43 C 937.718 1471.84 936.027 1567.07 936.77 1661.55 C 937.081 1701.13 936.072 1741.49 937.092 1780.98 C 930.296 1787.04 923.337 1793.42 916.447 1799.33 L 916.307 1387.04 C 867.434 1335.82 818.287 1284.86 768.867 1234.16 L 687.143 1234.14 z"/>
<path transform="translate(0,0)" fill="rgb(20,26,32)" d="M 641.94 1194.65 C 649.586 1192.48 657.814 1194.58 663.475 1200.16 C 669.137 1205.75 671.356 1213.94 669.284 1221.62 C 667.212 1229.3 661.17 1235.26 653.468 1237.24 C 641.776 1240.24 629.844 1233.29 626.69 1221.64 C 623.535 1209.98 630.331 1197.96 641.94 1194.65 z"/>
<path transform="translate(0,0)" fill="rgb(116,182,219)" d="M 1024.88 1148.18 C 1026.95 1137.24 1031.27 1099.06 1034.87 1091.96 C 1036.01 1117.17 1035.42 1145.89 1035.39 1171.47 L 1035.3 1302.62 C 1048.67 1307.24 1058.34 1313.09 1064.63 1326.68 C 1069.86 1337.7 1070.2 1350.41 1065.57 1361.69 C 1061.14 1372.5 1052.61 1381.11 1041.85 1385.66 C 1039.72 1386.54 1037.42 1387.31 1035.23 1388.04 L 1035.12 1533.02 C 1035.12 1554.46 1034.13 1588.17 1035.52 1608.88 L 1014.47 1628.46 C 1016.04 1549.67 1014.8 1467.12 1014.82 1388.06 C 1001.99 1382.92 992.36 1376.65 986.33 1363.37 C 981.466 1352.74 981.086 1340.6 985.274 1329.68 C 991.001 1314.77 1000.67 1308.6 1014.34 1302.71 C 1015.2 1297.91 1015 1291.69 1015.02 1286.74 C 1015.2 1222.11 1014.33 1157.37 1015.14 1092.74 C 1019.18 1099.9 1023.26 1137.6 1024.88 1148.18 z"/>
<path transform="translate(0,0)" fill="rgb(20,26,32)" d="M 1020.85 1323.62 C 1032.81 1320.96 1044.66 1328.5 1047.32 1340.46 C 1049.98 1352.42 1042.44 1364.28 1030.48 1366.94 C 1018.52 1369.59 1006.67 1362.05 1004.01 1350.09 C 1001.35 1338.13 1008.89 1326.28 1020.85 1323.62 z"/>
<path transform="translate(0,0)" fill="rgb(116,182,219)" d="M 1014.76 764.794 C 1008.12 762.168 1003.21 759.959 997.754 755.186 C 988.756 747.375 983.384 736.193 982.91 724.286 C 982.461 712.388 986.819 700.81 995.003 692.162 C 1002.83 683.832 1013.76 679.124 1025.18 679.163 C 1040.97 679.115 1048.81 684.826 1059.21 695.158 C 1062.7 692.992 1061.28 694.398 1063.36 690.517 C 1079.62 710.287 1078.39 742.225 1058.48 758.988 C 1057.58 759.741 1057 759.973 1056.03 760.442 L 1054.29 759.758 L 1056.45 757.674 L 1056.41 756.243 C 1054.92 756.397 1054.64 756.105 1053.25 755.606 C 1046.32 760.171 1043.35 762 1035.29 764.898 L 1035.37 905.256 C 1035.19 928.949 1036.67 965.855 1034.96 988.008 C 1032.07 983.723 1025.73 937.557 1024.37 929.122 C 1023.12 940.887 1019.51 975.139 1015.22 984.931 C 1014.36 970.229 1014.8 950.493 1014.74 935.41 C 1015.96 880.033 1014.89 820.52 1014.76 764.794 z"/>
<path transform="translate(0,0)" fill="rgb(1,3,4)" d="M 1059.21 695.158 C 1062.7 692.992 1061.28 694.398 1063.36 690.517 C 1079.62 710.287 1078.39 742.225 1058.48 758.988 C 1057.58 759.741 1057 759.973 1056.03 760.442 L 1054.29 759.758 L 1056.45 757.674 L 1056.41 756.243 C 1054.92 756.397 1054.64 756.105 1053.25 755.606 C 1071.69 736.332 1073.12 717.393 1059.21 695.158 z"/>
<path transform="translate(0,0)" fill="rgb(20,26,32)" d="M 1020.68 700.681 C 1032.66 697.859 1044.63 705.338 1047.35 717.335 C 1050.08 729.331 1042.5 741.246 1030.48 743.866 C 1018.6 746.455 1006.86 738.985 1004.17 727.13 C 1001.48 715.275 1008.85 703.47 1020.68 700.681 z"/>
<path transform="translate(0,0)" fill="rgb(252,131,24)" d="M 1024.37 929.122 C 1025.73 937.557 1032.07 983.723 1034.96 988.008 C 1036.66 1000.61 1038.08 1013.27 1049.33 1021.52 C 1061.55 1030.49 1085.55 1033.91 1100.4 1035.91 L 1110.04 1037.94 C 1090.24 1041.35 1054.92 1045.04 1043 1062.03 C 1036.89 1070.73 1035.74 1081.63 1034.87 1091.96 C 1031.27 1099.06 1026.95 1137.24 1024.88 1148.18 C 1023.26 1137.6 1019.18 1099.9 1015.14 1092.74 C 1012.78 1048.62 983.48 1045.87 946.735 1039.62 C 944.517 1039.13 942.392 1038.56 940.2 1037.98 L 940.057 1037.1 L 944.597 1036.2 C 982.699 1031.15 1010.84 1029.38 1015.22 984.931 C 1019.51 975.139 1023.12 940.887 1024.37 929.122 z"/>
<path transform="translate(0,0)" fill="rgb(36,45,54)" d="M 1013.59 969.768 C 1013.55 961.295 1012.99 942.524 1014.74 935.41 C 1014.8 950.493 1014.36 970.229 1015.22 984.931 C 1010.84 1029.38 982.699 1031.15 944.597 1036.2 C 951.166 1028.55 978.148 1017.07 989.956 1005.07 C 1002.01 992.824 1005.67 977.024 1013.59 969.768 z"/>
<path transform="translate(0,0)" fill="rgb(36,45,54)" d="M 946.735 1039.62 C 983.48 1045.87 1012.78 1048.62 1015.14 1092.74 C 1014.33 1157.37 1015.2 1222.11 1015.02 1286.74 C 1015 1291.69 1015.2 1297.91 1014.34 1302.71 C 1013.01 1292.65 1013.74 1264.1 1013.74 1252.34 L 1013.81 1151.29 C 1013.83 1115.97 1017.32 1106.38 997.56 1075.54 C 984.404 1055 956.962 1051.9 946.735 1039.62 z"/>
<path transform="translate(0,0)" fill="rgb(112,123,139)" d="M 801.946 926.593 C 816.091 911.565 832.369 895.946 847.049 881.093 L 938.349 788.414 C 937.132 812.27 938.503 837.235 937.903 861.209 C 937.654 871.138 937.654 882.451 938.369 892.293 C 935.223 898.814 883.866 951.043 874.966 960.577 L 874.932 1095.13 C 895.866 1118.41 917.056 1141.47 938.498 1164.28 L 938.293 1223.53 C 938.319 1231.79 939.393 1247.01 937.883 1254.45 L 936.686 1255.24 L 934.601 1253.11 C 918.474 1237.95 900.757 1219.05 885.043 1203.03 L 801.44 1118.3 C 802.783 1055.58 801.851 989.459 801.946 926.593 z"/>
<path transform="translate(0,0)" fill="rgb(163,172,186)" d="M 869.122 959.589 C 880.947 946.922 927.082 895.316 938.369 892.293 C 935.223 898.814 883.866 951.043 874.966 960.577 L 874.932 1095.13 C 895.866 1118.41 917.056 1141.47 938.498 1164.28 L 938.293 1223.53 C 938.319 1231.79 939.393 1247.01 937.883 1254.45 L 936.686 1255.24 L 934.601 1253.11 C 932.261 1232.14 934.201 1192.79 932.997 1168.82 C 928.249 1162.06 914.181 1147.65 908.034 1141.06 L 868.012 1097.89 C 867.775 1051.79 868.146 1005.68 869.122 959.589 z"/>
<path transform="translate(0,0)" fill="rgb(116,182,219)" d="M 936.836 619.891 C 938.831 622.145 938.039 644.69 938.022 649.254 C 852.125 735.959 763.03 825.572 678.89 913.792 L 678.926 1004.01 L 727.826 1056.41 C 735.242 1058 740.142 1059.02 746.827 1063.14 C 757.063 1069.46 764.288 1079.66 766.842 1091.42 C 769.406 1102.9 767.206 1114.92 760.745 1124.75 C 752.456 1137.26 742.431 1141.46 728.546 1144.16 C 725.085 1144.18 721.683 1144.21 718.256 1143.65 C 706.714 1141.7 696.429 1135.22 689.687 1125.66 C 683.094 1116.15 680.497 1104.43 682.455 1093.02 C 685.016 1078.77 692.865 1070.1 704.117 1062.09 L 658.201 1012.43 L 658.159 905.083 C 667.049 895.056 679.317 883.217 688.884 873.421 L 747.579 813.336 L 936.836 619.891 z"/>
<path transform="translate(0,0)" fill="rgb(20,26,32)" d="M 722.188 1078.59 C 734.188 1077.06 745.195 1085.44 746.905 1097.42 C 748.615 1109.39 740.395 1120.52 728.446 1122.41 C 720.556 1123.66 712.606 1120.56 707.643 1114.3 C 702.68 1108.04 701.474 1099.59 704.487 1092.2 C 707.5 1084.8 714.264 1079.6 722.188 1078.59 z"/>
<path transform="translate(0,0)" fill="rgb(82,96,112)" d="M 1163.16 397.354 C 1162.88 353.979 1162.87 310.602 1163.12 267.226 C 1163.14 249.49 1162.5 227.368 1163.15 209.909 L 1164.39 208.896 L 1167.04 210.371 C 1180.8 218.362 1201.2 235.156 1213.9 245.17 C 1242.8 267.867 1271.41 290.929 1299.73 314.351 C 1404.32 398.923 1507.5 485.221 1609.24 573.21 L 1660.98 618.154 C 1666.02 622.553 1683.98 638.044 1687.28 642.333 C 1689.06 658.185 1687.92 701.028 1687.91 718.698 L 1687.93 868.215 L 1687.04 1268.5 C 1686.84 1298.44 1687.44 1328.38 1687.04 1358.37 C 1665.64 1379.65 1641.58 1401.11 1619.49 1421.93 L 1514.44 1521.9 C 1405.83 1626.94 1295.86 1730.58 1184.58 1832.79 C 1180.14 1830.44 1175.36 1828.06 1171.15 1825.37 C 1169.87 1812.36 1171.01 1787.35 1170.99 1772.9 L 1171.07 1661.91 C 1171.14 1652.55 1170.3 1611.04 1171.51 1604.58 C 1176.49 1600.08 1186.24 1589.13 1191.4 1583.72 L 1234.82 1538.35 L 1363.56 1403.88 L 1442.99 1320.57 C 1453.87 1309.11 1474.58 1288.4 1483.65 1276.32 C 1482.32 1266.92 1483.3 1224.67 1483.31 1212.78 L 1483.26 1073.02 L 1483.38 844.708 L 1483.32 768.181 C 1483.31 753.478 1482.92 736.437 1483.83 721.9 C 1473.39 709.944 1459.07 695.926 1447.71 684.175 L 1375 609.395 C 1305.95 537.168 1235.32 466.471 1163.16 397.354 z"/>
<path transform="translate(0,0)" fill="rgb(134,145,160)" d="M 1163.16 397.354 C 1162.88 353.979 1162.87 310.602 1163.12 267.226 C 1163.14 249.49 1162.5 227.368 1163.15 209.909 L 1164.39 208.896 L 1167.04 210.371 C 1180.8 218.362 1201.2 235.156 1213.9 245.17 C 1242.8 267.867 1271.41 290.929 1299.73 314.351 C 1404.32 398.923 1507.5 485.221 1609.24 573.21 L 1660.98 618.154 C 1666.02 622.553 1683.98 638.044 1687.28 642.333 C 1678.36 652.437 1664.33 667.502 1656.6 677.918 C 1615.84 722.475 1578.31 771.609 1538.66 816.315 C 1532.17 829.976 1538.45 938.73 1538.48 962.234 C 1538.51 975.681 1537.38 989.136 1537.34 1002.6 C 1537.23 1036.67 1538.39 1070.64 1538.7 1104.68 C 1538.99 1137.35 1538.33 1169.95 1538.99 1202.62 C 1537.72 1214.38 1536.6 1214.89 1530.27 1225.03 C 1530.06 1211.69 1530.2 1194.78 1529.14 1181.77 C 1528.56 1202.55 1528.9 1224.53 1528.97 1245.38 C 1529.01 1256.97 1528.48 1274.32 1529.19 1285.5 C 1520.86 1284.78 1493.96 1278.34 1483.65 1276.32 C 1482.32 1266.92 1483.3 1224.67 1483.31 1212.78 L 1483.26 1073.02 L 1483.38 844.708 L 1483.32 768.181 C 1483.31 753.478 1482.92 736.437 1483.83 721.9 C 1473.39 709.944 1459.07 695.926 1447.71 684.175 L 1375 609.395 C 1305.95 537.168 1235.32 466.471 1163.16 397.354 z"/>
<path transform="translate(0,0)" fill="rgb(60,71,86)" d="M 1163.16 397.354 C 1162.88 353.979 1162.87 310.602 1163.12 267.226 C 1163.14 249.49 1162.5 227.368 1163.15 209.909 L 1164.39 208.896 L 1167.04 210.371 C 1169.65 220.54 1189.36 248.406 1189.69 254.877 C 1191.46 289.425 1192.22 337.509 1190.98 371.284 C 1193.85 367.92 1192.23 368.726 1195.66 367.471 C 1201.05 369.903 1230.66 397.676 1238.11 404.262 C 1296.94 456.593 1354.42 510.434 1410.47 565.732 C 1436.51 591.742 1462.42 617.889 1488.19 644.17 C 1504.45 660.856 1522.02 679.802 1538.6 695.854 C 1537.36 735.555 1539.04 776.569 1538.66 816.315 C 1532.17 829.976 1538.45 938.73 1538.48 962.234 C 1538.51 975.681 1537.38 989.136 1537.34 1002.6 C 1537.23 1036.67 1538.39 1070.64 1538.7 1104.68 C 1538.99 1137.35 1538.33 1169.95 1538.99 1202.62 C 1537.72 1214.38 1536.6 1214.89 1530.27 1225.03 C 1530.06 1211.69 1530.2 1194.78 1529.14 1181.77 C 1528.56 1202.55 1528.9 1224.53 1528.97 1245.38 C 1529.01 1256.97 1528.48 1274.32 1529.19 1285.5 C 1520.86 1284.78 1493.96 1278.34 1483.65 1276.32 C 1482.32 1266.92 1483.3 1224.67 1483.31 1212.78 L 1483.26 1073.02 L 1483.38 844.708 L 1483.32 768.181 C 1483.31 753.478 1482.92 736.437 1483.83 721.9 C 1473.39 709.944 1459.07 695.926 1447.71 684.175 L 1375 609.395 C 1305.95 537.168 1235.32 466.471 1163.16 397.354 z"/>
<path transform="translate(0,0)" fill="rgb(163,172,186)" d="M 1190.98 371.284 C 1193.85 367.92 1192.23 368.726 1195.66 367.471 C 1201.05 369.903 1230.66 397.676 1238.11 404.262 C 1296.94 456.593 1354.42 510.434 1410.47 565.732 C 1436.51 591.742 1462.42 617.889 1488.19 644.17 C 1504.45 660.856 1522.02 679.802 1538.6 695.854 C 1537.36 735.555 1539.04 776.569 1538.66 816.315 C 1532.17 829.976 1538.45 938.73 1538.48 962.234 C 1538.51 975.681 1537.38 989.136 1537.34 1002.6 C 1537.23 1036.67 1538.39 1070.64 1538.7 1104.68 C 1538.99 1137.35 1538.33 1169.95 1538.99 1202.62 C 1537.72 1214.38 1536.6 1214.89 1530.27 1225.03 C 1530.06 1211.69 1530.2 1194.78 1529.14 1181.77 L 1528.96 700.977 C 1511.65 684.075 1493.84 664.739 1476.67 647.256 C 1435.82 605.433 1394.48 564.098 1352.65 523.26 C 1320.96 492.629 1288.98 462.3 1256.72 432.278 C 1235.67 412.829 1211.08 391.271 1190.98 371.284 z"/>
<path transform="translate(0,0)" fill="rgb(112,123,139)" d="M 1687.28 642.333 C 1689.06 658.185 1687.92 701.028 1687.91 718.698 L 1687.93 868.215 C 1683.45 873.684 1657.46 914.063 1656.14 919.428 L 1655.7 1017.28 C 1655.64 1031.21 1655.71 1045.18 1655.16 1059.11 C 1654.98 1063.63 1653.58 1066.76 1650.84 1070.28 C 1639.58 1083.13 1627.16 1100.28 1616.29 1113.93 C 1591.03 1145.19 1566.28 1176.86 1542.03 1208.92 C 1543.56 1232.35 1543.46 1263.92 1543.11 1287.63 C 1539.24 1291.46 1534.87 1296.5 1530.14 1298.77 C 1532.04 1294.79 1533.13 1293.07 1535.57 1289.35 C 1537.93 1286.81 1539.98 1282.96 1540.01 1279.51 C 1540.21 1254.9 1540.22 1227.11 1538.99 1202.62 C 1538.33 1169.95 1538.99 1137.35 1538.7 1104.68 C 1538.39 1070.64 1537.23 1036.67 1537.34 1002.6 C 1537.38 989.136 1538.51 975.681 1538.48 962.234 C 1538.45 938.73 1532.17 829.976 1538.66 816.315 C 1578.31 771.609 1615.84 722.475 1656.6 677.918 C 1664.33 667.502 1678.36 652.437 1687.28 642.333 z"/>
<path transform="translate(0,0)" fill="rgb(60,71,86)" d="M 1687.28 642.333 C 1689.06 658.185 1687.92 701.028 1687.91 718.698 L 1687.93 868.215 C 1683.45 873.684 1657.46 914.063 1656.14 919.428 L 1656.6 677.918 C 1664.33 667.502 1678.36 652.437 1687.28 642.333 z"/>
<path transform="translate(0,0)" fill="rgb(46,58,70)" d="M 1656.14 919.428 C 1657.46 914.063 1683.45 873.684 1687.93 868.215 L 1687.04 1268.5 C 1686.84 1298.44 1687.44 1328.38 1687.04 1358.37 C 1665.64 1379.65 1641.58 1401.11 1619.49 1421.93 L 1514.44 1521.9 C 1405.83 1626.94 1295.86 1730.58 1184.58 1832.79 C 1180.14 1830.44 1175.36 1828.06 1171.15 1825.37 C 1169.87 1812.36 1171.01 1787.35 1170.99 1772.9 L 1171.07 1661.91 C 1171.14 1652.55 1170.3 1611.04 1171.51 1604.58 C 1179.97 1608.08 1195.71 1615.93 1203.29 1618.38 L 1206.49 1621.81 C 1209.71 1622.16 1208.06 1622.31 1211.45 1620.51 C 1212.79 1630.9 1211.76 1645.18 1211.32 1655.93 C 1209.67 1696.56 1212.88 1737.97 1212.07 1778.48 C 1219.86 1772.87 1227.32 1765.88 1234.7 1759.66 C 1265.65 1733.6 1296.33 1707.23 1326.72 1680.55 C 1343.05 1666.21 1355.09 1652.09 1369.41 1635.91 L 1421.26 1577.37 C 1473.77 1518.03 1526.17 1458.06 1581.26 1401.06 C 1603.89 1377.65 1628.54 1356.02 1653.02 1334.56 L 1654.73 1159 C 1654.79 1139.88 1657.01 1084.4 1650.84 1070.28 C 1653.58 1066.76 1654.98 1063.63 1655.16 1059.11 C 1655.71 1045.18 1655.64 1031.21 1655.7 1017.28 L 1656.14 919.428 z"/>
<path transform="translate(0,0)" fill="rgb(112,123,139)" d="M 1206.49 1621.81 C 1209.71 1622.16 1208.06 1622.31 1211.45 1620.51 C 1212.79 1630.9 1211.76 1645.18 1211.32 1655.93 C 1209.67 1696.56 1212.88 1737.97 1212.07 1778.48 L 1207.84 1782.06 L 1206.45 1781.7 C 1204.63 1771.73 1205.1 1631.86 1206.49 1621.81 z"/>
<path transform="translate(0,0)" fill="rgb(134,145,160)" d="M 1529.14 1181.77 C 1530.2 1194.78 1530.06 1211.69 1530.27 1225.03 C 1536.6 1214.89 1537.72 1214.38 1538.99 1202.62 C 1540.22 1227.11 1540.21 1254.9 1540.01 1279.51 C 1539.98 1282.96 1537.93 1286.81 1535.57 1289.35 C 1533.13 1293.07 1532.04 1294.79 1530.14 1298.77 C 1506.24 1324.69 1475.99 1353.37 1450.74 1378.64 L 1291.72 1538.24 L 1240.01 1590.7 C 1232.48 1598.35 1217.73 1612.81 1211.45 1620.51 C 1208.06 1622.31 1209.71 1622.16 1206.49 1621.81 L 1203.29 1618.38 C 1195.71 1615.93 1179.97 1608.08 1171.51 1604.58 C 1176.49 1600.08 1186.24 1589.13 1191.4 1583.72 L 1234.82 1538.35 L 1363.56 1403.88 L 1442.99 1320.57 C 1453.87 1309.11 1474.58 1288.4 1483.65 1276.32 C 1493.96 1278.34 1520.86 1284.78 1529.19 1285.5 C 1528.48 1274.32 1529.01 1256.97 1528.97 1245.38 C 1528.9 1224.53 1528.56 1202.55 1529.14 1181.77 z"/>
<path transform="translate(0,0)" fill="rgb(163,172,186)" d="M 1530.27 1286.35 L 1535.57 1289.35 C 1533.13 1293.07 1532.04 1294.79 1530.14 1298.77 C 1506.24 1324.69 1475.99 1353.37 1450.74 1378.64 L 1291.72 1538.24 L 1240.01 1590.7 C 1232.48 1598.35 1217.73 1612.81 1211.45 1620.51 C 1208.06 1622.31 1209.71 1622.16 1206.49 1621.81 L 1203.29 1618.38 C 1207.66 1612.6 1218.07 1602.34 1223.47 1596.74 L 1260.17 1558.86 C 1306.66 1511.09 1353.53 1463.69 1400.78 1416.68 L 1489.55 1327.02 C 1499.13 1317.37 1520.63 1294.43 1530.27 1286.35 z"/>
<path transform="translate(0,0)" fill="rgb(112,123,139)" d="M 1118.32 779.151 C 1119.53 765.512 1118.83 738.779 1118.88 724.268 L 1119.15 612.272 C 1129.17 619.698 1143.08 634.166 1152.35 643.165 L 1204.65 693.542 C 1245.96 733.095 1287.04 772.894 1327.88 812.938 C 1334.24 819.214 1377.65 860.133 1378.64 865.725 C 1377.59 892.997 1378.21 924.119 1378.18 951.63 L 1377.94 1103.4 C 1377.92 1115.33 1378.65 1176.58 1377.01 1183.74 L 1192.03 1361.06 C 1168.5 1383.71 1143.72 1409 1119.72 1430.93 C 1119.16 1415.93 1119.2 1401.77 1119.29 1386.75 C 1118.46 1345.53 1118.72 1300.62 1119.2 1259.36 L 1119.12 1161.86 L 1118.91 1155.14 C 1121.49 1151.25 1135.06 1136.82 1138.79 1132.78 C 1151.98 1118.61 1165.08 1104.36 1178.11 1090.04 C 1177.83 1081.72 1178.09 1072.52 1178.15 1064.13 C 1176.56 1033.07 1177.92 989.914 1177.9 957.833 C 1158.93 937.539 1138.84 914.443 1119.25 895.008 C 1117.98 889.786 1118.33 861.452 1118.37 855.298 L 1118.88 782.636 L 1118.32 779.151 z"/>
<path transform="translate(0,0)" fill="rgb(60,71,86)" d="M 1118.88 782.636 C 1153.83 816.564 1186.6 855.548 1220.68 889.226 C 1229.92 901.007 1242.06 911.869 1251.74 923.344 L 1251.72 1117.23 C 1221.53 1150.29 1191.14 1183.15 1160.53 1215.81 C 1153.27 1223.61 1126.17 1253.91 1119.2 1259.36 L 1119.12 1161.86 L 1118.91 1155.14 C 1121.49 1151.25 1135.06 1136.82 1138.79 1132.78 C 1151.98 1118.61 1165.08 1104.36 1178.11 1090.04 C 1177.83 1081.72 1178.09 1072.52 1178.15 1064.13 C 1176.56 1033.07 1177.92 989.914 1177.9 957.833 C 1158.93 937.539 1138.84 914.443 1119.25 895.008 C 1117.98 889.786 1118.33 861.452 1118.37 855.298 L 1118.88 782.636 z"/>
<path transform="translate(0,0)" fill="rgb(82,96,112)" d="M 1178.11 1090.04 L 1180.58 1089.24 C 1178.57 1099.29 1141.8 1134.85 1133.62 1145.76 C 1130.82 1149.5 1121.74 1157.34 1119.12 1161.86 L 1118.91 1155.14 C 1121.49 1151.25 1135.06 1136.82 1138.79 1132.78 C 1151.98 1118.61 1165.08 1104.36 1178.11 1090.04 z"/>
<path transform="translate(0,0)" fill="rgb(82,96,112)" d="M 1178.15 1064.13 L 1178.24 1062.85 C 1179.5 1043.19 1178.21 1021.21 1178.75 1001.28 C 1178.91 995.173 1178.62 980.034 1179.86 974.425 C 1182.07 989.519 1180.29 1023.08 1180.9 1039.53 C 1181.15 1046.47 1181.34 1084.36 1180.58 1089.24 L 1178.11 1090.04 C 1177.83 1081.72 1178.09 1072.52 1178.15 1064.13 z"/>
<path transform="translate(0,0)" fill="rgb(60,71,86)" d="M 1378.64 865.725 C 1377.59 892.997 1378.21 924.119 1378.18 951.63 L 1377.94 1103.4 C 1377.92 1115.33 1378.65 1176.58 1377.01 1183.74 C 1370.85 1178.21 1339.19 1165.54 1328.94 1160.73 C 1328.27 1081.34 1328.02 1001.95 1328.18 922.56 C 1342.31 906.988 1364.48 879.075 1378.64 865.725 z"/>
<path transform="translate(0,0)" fill="rgb(46,58,70)" d="M 1328.94 1160.73 C 1339.19 1165.54 1370.85 1178.21 1377.01 1183.74 L 1192.03 1361.06 C 1168.5 1383.71 1143.72 1409 1119.72 1430.93 C 1119.16 1415.93 1119.2 1401.77 1119.29 1386.75 C 1123.05 1383.63 1137.49 1367.17 1141.39 1362.92 L 1191.46 1308.29 C 1236.85 1258.81 1283.89 1210.23 1328.94 1160.73 z"/>
<path transform="translate(0,0)" fill="rgb(163,172,186)" d="M 1118.32 779.151 C 1123.93 783.098 1220.09 883.697 1221.48 887.049 L 1220.68 889.226 C 1186.6 855.548 1153.83 816.564 1118.88 782.636 L 1118.32 779.151 z"/>
</svg>